<svg xmlns="http://www.w3.org/2000/svg" width="133" height="115" viewBox="0 0 133 115">
  <g id="Group_29" data-name="Group 29" transform="translate(-252 -556)">
    <g id="high-five" transform="translate(268.512 564.092)">
      <path id="Path_32" data-name="Path 32" d="M81.286,80.961a31.031,31.031,0,0,0,8.78-19.616l.207-33.64a5.417,5.417,0,0,0-5.422-5.547,5.664,5.664,0,0,0-5.539,5.667l-.066,10.1a1.729,1.729,0,0,1-2.961,1.192L51.133,13.547a5.531,5.531,0,0,0-7.734.068,5.713,5.713,0,0,0-.119,7.917C43.448,21.7,41.65,19.876,56,34.464a1.724,1.724,0,1,1-2.469,2.407L40.861,23.99l-.063-.066-6.272-6.375a5.531,5.531,0,0,0-7.734.068,5.708,5.708,0,0,0-.068,7.968l17.74,18.034a1.711,1.711,0,0,1-.027,2.43A1.738,1.738,0,0,1,42,46.023L28.058,31.855a5.531,5.531,0,0,0-7.734.066,5.7,5.7,0,0,0-.068,7.969l21.54,21.9a1.716,1.716,0,0,1-.027,2.432,1.738,1.738,0,0,1-2.443-.027L25.366,50a5.531,5.531,0,0,0-7.71.093,5.711,5.711,0,0,0-.074,7.969L40.4,81.244C51.142,93.2,67.256,95.39,81.286,80.961Z" transform="translate(8.703 5.802)" fill="#c4a2fc"/>
      <path id="Path_33" data-name="Path 33" d="M10.279,70.941c-14.04-14.017-7.5-31.591-9.165-51.148a8.268,8.268,0,0,1,8.277-8.3h.028a8.39,8.39,0,0,1,8.345,8.334l.019,5.495L38.725,4.416A8.367,8.367,0,0,1,52.911,9.389l1.348-1.345A8.358,8.358,0,0,1,66.967,18.8a8.352,8.352,0,0,1,5.125,14.183l-2.528,2.528a8.348,8.348,0,0,1,4.978,14.167L67.43,56.792l-.024.024L53.123,71.076C52.84,71.4,44.487,80.638,32.316,81c-8.633.247-15.987-4.012-22.037-10.057Zm2.234-2.236c6.261,6.253,12.83,9.336,19.668,9.135,10.8-.3,18.557-8.849,18.634-8.935L72.307,47.45A5.192,5.192,0,1,0,65,40.071L51.863,53.187a1.581,1.581,0,0,1-2.234-2.236C72.111,28.5,55.07,45.515,69.859,30.757a5.192,5.192,0,1,0-7.3-7.382L49.415,36.492a1.581,1.581,0,0,1-2.234-2.236L63.843,17.615a5.191,5.191,0,0,0-7.35-7.334L38.637,28.106a1.58,1.58,0,1,1-2.231-2.236l11.9-11.883a5.082,5.082,0,0,0,1.5-3.614A5.207,5.207,0,0,0,40.958,6.66L17.333,30.241a1.58,1.58,0,0,1-2.7-1.106L14.6,19.847A5.215,5.215,0,0,0,9.41,14.663a5.109,5.109,0,0,0-5.141,5.128C4.16,47.276,2.212,58.42,12.514,68.705Z" transform="translate(0)" fill="#151a6a"/>
    </g>
    <rect id="Rectangle_9" data-name="Rectangle 9" width="133" height="115" transform="translate(252 556)" fill="none"/>
  </g>
</svg>
