<svg xmlns="http://www.w3.org/2000/svg" width="133" height="115" viewBox="0 0 133 115">
  <g id="Group_31" data-name="Group 31" transform="translate(-263 -707)">
    <g id="tools" transform="translate(284.242 719.741)">
      <path id="Path_54" data-name="Path 54" d="M317.584,305.469a8.361,8.361,0,0,1-11.823,11.824L283.4,293.006l9.856-9.854Zm0,0" transform="translate(-235.602 -235.811)" fill="#2bbdc4"/>
      <path id="Path_55" data-name="Path 55" d="M265.8,256.133l4.922,4.518-9.856,9.854-4.524-4.913Zm0,0" transform="translate(-213.068 -213.309)" fill="#495d85"/>
      <path id="Path_56" data-name="Path 56" d="M91.974,20.242l-7.422,7.48h-4.73L75.2,22.935v-4.73l7.313-7.421A15.057,15.057,0,0,0,63.448,29.854L49.241,44.062l-.011-.012L27.052,21.822V17.094L15.23,10,10.5,14.729,17.594,26.55l4.728,0L44.5,48.78l.01.01L30.354,62.948a15.057,15.057,0,0,0-19.07,19.068l7.422-7.48h4.73l4.787,4.787v4.73l-7.48,7.422A15.057,15.057,0,0,0,39.811,72.4L72.9,39.31a15.058,15.058,0,0,0,19.07-19.068Zm0,0" transform="translate(-8.328 -8.329)" fill="#e9eef0"/>
      <path id="Path_57" data-name="Path 57" d="M339.012,155.148a1.672,1.672,0,1,0,1.672,1.671A1.671,1.671,0,0,0,339.012,155.148Zm0,0" transform="translate(-280.522 -129.209)"/>
      <path id="Path_58" data-name="Path 58" d="M157.317,336.84a1.672,1.672,0,1,0,1.672,1.672A1.671,1.671,0,0,0,157.317,336.84Zm0,0" transform="translate(-129.206 -280.522)"/>
      <path id="Path_59" data-name="Path 59" d="M84.024,10.285a1.671,1.671,0,0,0-1.565.451l-6.931,6.986H72.2l-3.658-3.79V10.563l6.832-6.934A1.672,1.672,0,0,0,74.722.871a16.732,16.732,0,0,0-21.493,20.18L40.914,33.367,20.4,12.8V8.765a1.672,1.672,0,0,0-.812-1.434L7.762.238A1.671,1.671,0,0,0,5.72.489L.991,5.217A1.674,1.674,0,0,0,.74,7.26L7.832,19.082a1.672,1.672,0,0,0,1.433.812H13.3L33.82,40.46,21.551,52.729A16.73,16.73,0,0,0,1.372,74.221a1.672,1.672,0,0,0,2.771.644l6.931-6.986h3.341l3.807,3.807v3.341l-6.986,6.931a1.672,1.672,0,0,0,.644,2.771,16.723,16.723,0,0,0,18.909-6.091A16.533,16.533,0,0,0,33.373,64.55L43.226,54.7l2.257,2.452-1.036,1.035a1.672,1.672,0,0,0,2.365,2.365l.938-.938,21.178,23,.048.05A10.033,10.033,0,0,0,83.164,68.476l-.052-.05L60.072,47.289,61,46.362A1.672,1.672,0,0,0,58.635,44l-1.029,1.029L55.15,42.772l9.9-9.9A16.729,16.729,0,0,0,85.23,11.38a1.67,1.67,0,0,0-1.206-1.095ZM15.177,17.042a1.655,1.655,0,0,0-1.183-.474H10.213L4.279,6.659,7.161,3.777l9.891,5.935v3.782a1.671,1.671,0,0,0,.489,1.181L38.549,35.731,36.185,38.1ZM57.706,49.656,80.824,70.864a6.689,6.689,0,0,1-9.46,9.458L50.117,57.244ZM55.24,47.393l-7.39,7.389L45.593,52.33l7.191-7.191Zm14.143-17.3a13.362,13.362,0,0,1-4.273-.7,1.675,1.675,0,0,0-1.716.4L30.3,62.893a1.672,1.672,0,0,0-.4,1.716A13.389,13.389,0,0,1,17.219,82.258a13.7,13.7,0,0,1-1.458-.078l5.31-5.269a1.671,1.671,0,0,0,.494-1.187v-4.73a1.672,1.672,0,0,0-.49-1.182l-4.787-4.787a1.672,1.672,0,0,0-1.182-.49h-4.73a1.674,1.674,0,0,0-1.187.494L3.921,70.34a13.526,13.526,0,0,1-.078-1.458A13.389,13.389,0,0,1,21.492,56.2a1.671,1.671,0,0,0,1.716-.4L56.3,22.707a1.672,1.672,0,0,0,.4-1.716A13.388,13.388,0,0,1,69.382,3.343a13.664,13.664,0,0,1,1.5.083L65.683,8.7A1.671,1.671,0,0,0,65.2,9.877v4.73a1.67,1.67,0,0,0,.469,1.161l4.619,4.787a1.671,1.671,0,0,0,1.2.511h4.73a1.671,1.671,0,0,0,1.187-.494l5.269-5.31a13.386,13.386,0,0,1-13.3,14.833Zm0,0" transform="translate(0 0)"/>
      <path id="Path_60" data-name="Path 60" d="M205.336,183.915l-20.922,20.922a1.672,1.672,0,1,0,2.365,2.364L207.7,186.279a1.672,1.672,0,1,0-2.365-2.364Zm0,0" transform="translate(-152.757 -152.758)"/>
      <path id="Path_61" data-name="Path 61" d="M360.841,362.95a1.672,1.672,0,0,0,2.361-2.368l-15.071-15.022a1.672,1.672,0,0,0-2.361,2.368Zm0,0" transform="translate(-287.133 -287.378)"/>
    </g>
    <rect id="Rectangle_8" data-name="Rectangle 8" width="133" height="115" transform="translate(263 707)" fill="none"/>
  </g>
</svg>
