<svg xmlns="http://www.w3.org/2000/svg" width="133" height="115" viewBox="0 0 133 115">
  <g id="Group_32" data-name="Group 32" transform="translate(-95 -707)">
    <g id="management" transform="translate(122.777 725.777)">
      <g id="Group_26" data-name="Group 26" transform="translate(2.217 2.217)">
        <g id="Group_13" data-name="Group 13" transform="translate(59.626 49.891)">
          <path id="Path_34" data-name="Path 34" d="M63.169,43v7.3H51V43Z" transform="translate(-51 -43)" fill="#fcd770"/>
        </g>
        <g id="Group_14" data-name="Group 14" transform="translate(59.626 64.494)">
          <path id="Path_35" data-name="Path 35" d="M63.169,55v7.3H51V55H63.169Z" transform="translate(-51 -55)" fill="#fcd770"/>
        </g>
        <g id="Group_15" data-name="Group 15" transform="translate(35.289 64.494)">
          <path id="Path_36" data-name="Path 36" d="M43.169,58.651V62.3H31V55H43.169Z" transform="translate(-31 -55)" fill="#fcd770"/>
        </g>
        <g id="Group_16" data-name="Group 16" transform="translate(35.289 49.891)">
          <path id="Path_37" data-name="Path 37" d="M43.169,46.651V50.3H31V43H43.169Z" transform="translate(-31 -43)" fill="#fcd770"/>
        </g>
        <g id="Group_17" data-name="Group 17" transform="translate(0 63.277)">
          <path id="Path_38" data-name="Path 38" d="M2,63.735V54H14.169v9.735Z" transform="translate(-2 -54)" fill="#ff826e"/>
        </g>
        <g id="Group_18" data-name="Group 18" transform="translate(0 48.675)">
          <path id="Path_39" data-name="Path 39" d="M2,51.735V42H14.169v9.735Z" transform="translate(-2 -42)" fill="#ff826e"/>
        </g>
        <g id="Group_19" data-name="Group 19" transform="translate(0 34.072)">
          <path id="Path_40" data-name="Path 40" d="M2,39.735V30H14.169v9.735Z" transform="translate(-2 -30)" fill="#ff826e"/>
        </g>
        <g id="Group_20" data-name="Group 20" transform="translate(32.989 9.735)">
          <path id="Path_41" data-name="Path 41" d="M67.782,11.351A4.578,4.578,0,0,0,64.521,10H36.959L35.511,22.935a4.6,4.6,0,0,1-4.575,4.1H29.11l.633,5.634a4.6,4.6,0,0,0,4.575,4.1h1.959v3.152a1.7,1.7,0,0,0,1.241,1.643,1.492,1.492,0,0,0,.475.073,1.721,1.721,0,0,0,1.217-.5l4.369-4.369,19.47-.024a4.608,4.608,0,0,0,4.1-4.076l1.959-17.547c.012-.17.024-.341.024-.511a4.578,4.578,0,0,0-1.351-3.261Z" transform="translate(-29.11 -10)" fill="#ccd1d9"/>
        </g>
        <g id="Group_21" data-name="Group 21" transform="translate(0 0)">
          <path id="Path_42" data-name="Path 42" d="M42.023,3.351A4.578,4.578,0,0,0,38.762,2H6.612A4.617,4.617,0,0,0,2,6.612c0,.17.012.341.024.511L3.983,24.67a4.608,4.608,0,0,0,4.1,4.076l17.036.024,4.369,4.369a1.721,1.721,0,0,0,2.933-1.217V28.771h4.393a4.6,4.6,0,0,0,4.575-4.1l1.448-12.935.511-4.612c.012-.17.024-.341.024-.511a4.578,4.578,0,0,0-1.351-3.261Z" transform="translate(-2 -2)" fill="#e6e9ed"/>
        </g>
        <g id="Group_22" data-name="Group 22" transform="translate(6.084 14.602)">
          <path id="Path_43" data-name="Path 43" d="M24.036,22.518v3.651H7.475c-.158,0-.316-.012-.475-.024V22.518a8.518,8.518,0,1,1,17.036,0Z" transform="translate(-7 -14)" fill="#fcd770"/>
        </g>
        <g id="Group_23" data-name="Group 23" transform="translate(49.891 24.337)">
          <path id="Path_44" data-name="Path 44" d="M60.036,30.518v3.626c-.158.012-.316.024-.475.024H43V30.518a8.518,8.518,0,1,1,17.036,0Z" transform="translate(-43 -22)" fill="#b4dd7f"/>
        </g>
        <g id="Group_24" data-name="Group 24" transform="translate(9.735 4.867)">
          <circle id="Ellipse_2" data-name="Ellipse 2" cx="5" cy="5" r="5" transform="translate(0.048 -0.084)" fill="#f0d0b4"/>
        </g>
        <g id="Group_25" data-name="Group 25" transform="translate(53.542 14.602)">
          <ellipse id="Ellipse_3" data-name="Ellipse 3" cx="4.5" cy="5" rx="4.5" ry="5" transform="translate(0.241 0.181)" fill="#f0d0b4"/>
        </g>
      </g>
      <g id="Group_27" data-name="Group 27" transform="translate(1 1)">
        <path id="Path_45" data-name="Path 45" d="M23,5H35.169V7.434H23Z" transform="translate(3.771 -0.133)"/>
        <path id="Path_46" data-name="Path 46" d="M23,9H35.169v2.434H23Z" transform="translate(3.771 0.735)"/>
        <path id="Path_47" data-name="Path 47" d="M27,13h2.434v2.434H27Z" transform="translate(4.639 1.602)"/>
        <path id="Path_48" data-name="Path 48" d="M31,13h2.434v2.434H31Z" transform="translate(5.506 1.602)"/>
        <path id="Path_49" data-name="Path 49" d="M23,13h2.434v2.434H23Z" transform="translate(3.771 1.602)"/>
        <path id="Path_50" data-name="Path 50" d="M46.171,43.947l4.007-4.007H68.666a5.826,5.826,0,0,0,5.795-5.185L76.41,17.21a6.034,6.034,0,0,0,.035-.646,5.835,5.835,0,0,0-5.829-5.829H44.409l.363-3.261a5.993,5.993,0,0,0,.035-.645A5.835,5.835,0,0,0,38.978,1H6.829A5.835,5.835,0,0,0,1,6.829a5.971,5.971,0,0,0,.035.644L2.985,25.02A5.825,5.825,0,0,0,8.779,30.2H20.47V39.94H15.6V35.072H1V47.241H15.6V42.373H20.47V54.542H15.6V49.675H1V61.843H15.6V56.976H20.47V69.144H15.6V64.277H1V76.446H15.6V71.578h7.3v-14.6H36.289v3.651h6.084v4.867H36.289v9.735h14.6V71.578h9.735v3.651h14.6V65.494H69.144V60.626h6.084V50.891h-14.6v3.651H50.891V50.891H44.807V44.707a2.946,2.946,0,0,0,1.364-.761Zm-33,.86H3.434v-7.3h9.735Zm0,14.6H3.434v-7.3h9.735Zm0,14.6H3.434v-7.3h9.735ZM56.976,21.687a3.651,3.651,0,1,1,3.651,3.651A3.655,3.655,0,0,1,56.976,21.687ZM67.928,37.506h-14.6V35.072a7.3,7.3,0,1,1,14.6,0ZM44.139,13.169H70.617a3.4,3.4,0,0,1,3.4,3.4,3.241,3.241,0,0,1-.022.375L72.041,34.484a3.379,3.379,0,0,1-1.68,2.56V35.072a9.741,9.741,0,0,0-5.713-8.855,6.084,6.084,0,1,0-8.042,0,9.741,9.741,0,0,0-5.713,8.855v2.434H49.171l-4.72,4.72a.523.523,0,0,1-.86-.357V37.506H40.418a3.391,3.391,0,0,1-3.374-3.02L36.568,30.2h.461a5.826,5.826,0,0,0,5.795-5.185ZM5.4,24.751,3.456,7.2a3.2,3.2,0,0,1-.022-.374,3.4,3.4,0,0,1,3.4-3.4h32.15a3.4,3.4,0,0,1,3.4,3.4,3.241,3.241,0,0,1-.022.375L40.4,24.75a3.39,3.39,0,0,1-3.374,3.021H31.422v4.364a.524.524,0,0,1-.86.357l-4.007-4.007V25.337a9.741,9.741,0,0,0-5.713-8.855,6.084,6.084,0,1,0-8.043,0,9.741,9.741,0,0,0-5.713,8.855v1.974a3.382,3.382,0,0,1-1.68-2.56Zm7.765-12.8A3.651,3.651,0,1,1,16.819,15.6,3.655,3.655,0,0,1,13.169,11.952ZM24.12,27.771H9.518V25.337a7.3,7.3,0,1,1,14.6,0ZM48.458,72.8H38.723V67.928h9.735Zm24.337,0H63.06V67.928H72.8ZM63.06,53.325H72.8v4.867H63.06Zm-2.434,3.651v3.651h6.084v4.867H60.626v3.651H50.891V65.494H44.807V60.626h6.084V56.976ZM48.458,58.193H38.723V53.325h9.735Zm-12.169-7.3v3.651H22.9V30.2h1.93l4.006,4.006a2.938,2.938,0,0,0,5.016-2.076V30.2h.263l.505,4.55a5.825,5.825,0,0,0,5.795,5.185h.739v1.93a2.927,2.927,0,0,0,1.217,2.369v6.653Z" transform="translate(-1 -1)"/>
        <path id="Path_51" data-name="Path 51" d="M5,57H9.867v2.434H5Z" transform="translate(-0.133 11.144)"/>
        <path id="Path_52" data-name="Path 52" d="M5,45H9.867v2.434H5Z" transform="translate(-0.133 8.542)"/>
        <path id="Path_53" data-name="Path 53" d="M5,33H9.867v2.434H5Z" transform="translate(-0.133 5.94)"/>
      </g>
    </g>
    <rect id="Rectangle_10" data-name="Rectangle 10" width="133" height="115" transform="translate(95 707)" fill="none"/>
  </g>
</svg>
