<svg xmlns="http://www.w3.org/2000/svg" width="133" height="115" viewBox="0 0 133 115">
  <g id="Group_28" data-name="Group 28" transform="translate(-95 -556)">
    <g id="audit" transform="translate(116.006 567.993)">
      <path id="Path_3" data-name="Path 3" d="M40.031,121.9h63.687V40.016H53.679L40.031,53.663Zm0,0" transform="translate(-32.444 -32.418)" fill="#348fd9"/>
      <path id="Path_4" data-name="Path 4" d="M8.031,89.9H71.718V8.016H21.678L8.031,21.663Zm0,0" transform="translate(-6.509 -6.484)" fill="#60d1e0"/>
      <path id="Path_5" data-name="Path 5" d="M8.031,127.7v7.582H71.718V64.016Zm0,0" transform="translate(-6.509 -51.869)" fill="#5ac6d4"/>
      <path id="Path_6" data-name="Path 6" d="M21.679,21.663V8.016L8.031,21.663Zm0,0" transform="translate(-6.509 -6.483)" fill="#9fe4ed"/>
      <g id="Group_12" data-name="Group 12" transform="translate(7.588 7.598)">
        <path id="Path_7" data-name="Path 7" d="M87.038,104.016H44.58a4.549,4.549,0,0,0-4.549,4.549v48.523a4.549,4.549,0,0,0,4.549,4.549H87.038a4.549,4.549,0,0,0,4.549-4.549V108.565A4.549,4.549,0,0,0,87.038,104.016Zm1.516,4.549v4.549h-9.1v-6.065h7.582A1.516,1.516,0,0,1,88.554,108.565ZM52.162,151.023v-4.549H76.424v4.549Zm24.262,3.033V158.6H52.162v-4.549Zm0-37.909V120.7H52.162v-4.549Zm-24.262-3.033v-6.065H76.424v6.065Zm0,22.745V131.31H76.424v4.549Zm24.262,3.033v4.549H52.162v-4.549ZM52.162,128.278v-4.549H76.424v4.549ZM49.129,120.7H43.064v-4.549h6.065Zm0,3.033v4.549H43.064v-4.549Zm0,7.582v4.549H43.064V131.31Zm0,7.582v4.549H43.064v-4.549Zm0,7.582v4.549H43.064v-4.549Zm30.327,0h9.1v4.549h-9.1Zm0-3.033v-4.549h9.1v4.549Zm0-7.582V131.31h9.1v4.549Zm0-7.582v-4.549h9.1v4.549Zm0-7.582v-4.549h9.1V120.7ZM44.58,107.049h4.549v6.065H43.064v-4.549A1.516,1.516,0,0,1,44.58,107.049Zm-1.516,50.04v-3.033h6.065V158.6H44.58A1.516,1.516,0,0,1,43.064,157.089ZM87.038,158.6H79.456v-4.549h9.1v3.033A1.516,1.516,0,0,1,87.038,158.6Zm0,0" transform="translate(-40.031 -91.885)" fill="#3a9cc9"/>
        <path id="Path_8" data-name="Path 8" d="M120.031,72.016h12.131v3.033H120.031Zm0,0" transform="translate(-104.867 -65.95)" fill="#3a9cc9"/>
        <path id="Path_9" data-name="Path 9" d="M200.031,72.016H206.1v3.033h-6.065Zm0,0" transform="translate(-169.704 -65.95)" fill="#3a9cc9"/>
        <path id="Path_10" data-name="Path 10" d="M120.031,40.016H141.26v3.033H120.031Zm0,0" transform="translate(-104.867 -40.016)" fill="#3a9cc9"/>
      </g>
      <path id="Path_11" data-name="Path 11" d="M380.319,375.754l-15.738-15.738-4.549,4.549L375.77,380.3a3.217,3.217,0,0,0,4.549-4.549Zm0,0" transform="translate(-291.79 -291.764)" fill="#e94f4f"/>
      <path id="Path_12" data-name="Path 12" d="M370.628,366.063l-6.048-6.048-4.549,4.549,6.048,6.048A22.869,22.869,0,0,0,370.628,366.063Zm0,0" transform="translate(-291.79 -291.764)" fill="#cf3a3a"/>
      <path id="Path_13" data-name="Path 13" d="M229.522,214.761a22.745,22.745,0,1,1-22.745-22.745A22.746,22.746,0,0,1,229.522,214.761Zm0,0" transform="translate(-149.149 -155.607)" fill="#e94f4f"/>
      <path id="Path_14" data-name="Path 14" d="M249.391,240.7a16.68,16.68,0,1,1-16.68-16.68A16.68,16.68,0,0,1,249.391,240.7Zm0,0" transform="translate(-175.083 -181.542)" fill="#48add9"/>
      <path id="Path_15" data-name="Path 15" d="M259.325,253.663a13.647,13.647,0,1,1-13.647-13.647A13.647,13.647,0,0,1,259.325,253.663Zm0,0" transform="translate(-188.051 -194.509)" fill="#4db7e5"/>
      <path id="Path_16" data-name="Path 16" d="M216.031,279.6c8.068-10.11,25.293-10.11,33.36,0C241.324,289.706,224.1,289.706,216.031,279.6Zm0,0" transform="translate(-175.083 -220.442)" fill="#e0e0de"/>
      <path id="Path_17" data-name="Path 17" d="M216.031,279.6c8.068-10.11,25.293-10.11,33.36,0C241.324,289.706,224.1,289.706,216.031,279.6Zm0,0" transform="translate(-175.083 -220.442)" fill="#e0e0de"/>
      <path id="Path_18" data-name="Path 18" d="M264.524,277.617c-4.6,6.79-12.008,9.916-17.859,11.353,8.8,4.853,21.1,3.254,27.554-4.833a19.978,19.978,0,0,0-9.694-6.52Zm0,0" transform="translate(-199.91 -224.983)" fill="#d6d6d4"/>
      <path id="Path_19" data-name="Path 19" d="M279.195,279.6a7.582,7.582,0,1,1-7.582-7.582A7.581,7.581,0,0,1,279.195,279.6Zm0,0" transform="translate(-213.985 -220.444)" fill="#348fd9"/>
      <path id="Path_20" data-name="Path 20" d="M268.535,295.079a7.555,7.555,0,1,0,12.586-8.188,24.16,24.16,0,0,1-12.586,8.188Zm0,0" transform="translate(-217.636 -232.499)" fill="#3086cd"/>
      <path id="Path_21" data-name="Path 21" d="M294.1,299.049a3.033,3.033,0,1,1-3.033-3.033A3.033,3.033,0,0,1,294.1,299.049Zm0,0" transform="translate(-233.436 -239.895)" fill="#3d4d63"/>
      <path id="Path_22" data-name="Path 22" d="M1.522,84.932H6.071v4.549A1.516,1.516,0,0,0,7.588,91H71.275a1.516,1.516,0,0,0,1.516-1.516V83.416H69.758v4.549H9.1V84.932H43.98V81.9H3.039V16.7H15.169a1.516,1.516,0,0,0,1.516-1.516V3.049H63.693V31.859h3.033V9.114h3.033V34.892h3.033V7.6a1.516,1.516,0,0,0-1.516-1.516H66.726V1.532A1.516,1.516,0,0,0,65.209.016H15.169c-.03,0-.058.016-.088.019a1.425,1.425,0,0,0-.4.08c-.045.013-.089.03-.133.047a1.492,1.492,0,0,0-.447.3L.45,14.112a1.51,1.51,0,0,0-.3.445c-.021.047-.033.094-.05.142a1.431,1.431,0,0,0-.077.389c0,.033-.02.062-.02.1V83.416a1.517,1.517,0,0,0,1.522,1.516ZM13.653,5.193v8.47H5.183Zm0,0"/>
      <path id="Path_23" data-name="Path 23" d="M79.456,117.663v-1.516H91.587v-7.582a4.549,4.549,0,0,0-4.147-4.525,3.037,3.037,0,0,0-.4-.024H44.58a4.549,4.549,0,0,0-4.549,4.549v48.523a4.549,4.549,0,0,0,4.549,4.549H67.325V158.6H52.162v-4.549H64.293v-3.033H52.162v-4.549H62.776v-3.033H52.162v-4.549H63.08v-3.033H52.162V131.31H65.809v-3.033H52.162v-4.549H71.875V120.7H52.162v-4.549H76.424v1.516Zm7.706-10.6a1.507,1.507,0,0,1,1.392,1.505v4.549h-9.1v-6.076h7.518a1.606,1.606,0,0,0,.188.021Zm-42.582-.011h4.549v6.065H43.064v-4.549A1.516,1.516,0,0,1,44.58,107.049ZM49.129,158.6H44.58a1.516,1.516,0,0,1-1.516-1.516v-3.033h6.065Zm0-7.582H43.064v-4.549h6.065Zm0-7.582H43.064v-4.549h6.065Zm0-7.582H43.064V131.31h6.065Zm0-7.582H43.064v-4.549h6.065Zm0-7.582H43.064v-4.549h6.065Zm3.033-7.582v-6.065l24.262-.007v6.073Zm0,0" transform="translate(-32.443 -84.287)"/>
      <path id="Path_24" data-name="Path 24" d="M120.031,72.016h12.131v3.033H120.031Zm0,0" transform="translate(-97.28 -58.352)"/>
      <path id="Path_25" data-name="Path 25" d="M200.031,72.016H206.1v3.033h-6.065Zm0,0" transform="translate(-162.116 -58.352)"/>
      <path id="Path_26" data-name="Path 26" d="M120.031,40.016H141.26v3.033H120.031Zm0,0" transform="translate(-97.28 -32.418)"/>
      <path id="Path_27" data-name="Path 27" d="M220.245,220l-.194.194a24.362,24.362,0,1,0-6.246,6.753l10.936,10.936a4.733,4.733,0,1,0,6.693-6.693Zm-42.014-12.575A21.229,21.229,0,1,1,199.46,228.65,21.229,21.229,0,0,1,178.231,207.421Zm49.856,28.811a1.693,1.693,0,0,1-1.2-.5L216.14,224.991a24.275,24.275,0,0,0,2.3-2.506l10.845,10.845a1.7,1.7,0,0,1-1.2,2.9Zm0,0" transform="translate(-141.833 -148.267)"/>
      <path id="Path_28" data-name="Path 28" d="M226.227,216.016a18.2,18.2,0,1,0,18.2,18.2A18.2,18.2,0,0,0,226.227,216.016Zm-6.065,18.2a6.065,6.065,0,1,1,6.065,6.065A6.066,6.066,0,0,1,220.162,234.212Zm-1.764,4.611a18.409,18.409,0,0,1-6.854-4.611A18.417,18.417,0,0,1,218.4,229.6a9.013,9.013,0,0,0,0,9.223Zm15.658-9.223a18.411,18.411,0,0,1,6.854,4.611,18.4,18.4,0,0,1-6.854,4.611,9.013,9.013,0,0,0,0-9.223Zm-7.829-10.552a15.181,15.181,0,0,1,14.557,10.94,23.133,23.133,0,0,0-13.614-4.825,9.036,9.036,0,0,0-1.877,0,23.135,23.135,0,0,0-13.624,4.825,15.181,15.181,0,0,1,14.557-10.94Zm0,30.327a15.181,15.181,0,0,1-14.557-10.939,23.139,23.139,0,0,0,13.614,4.825,9.145,9.145,0,0,0,1.878,0,23.139,23.139,0,0,0,13.623-4.825A15.18,15.18,0,0,1,226.227,249.376Zm0,0" transform="translate(-168.6 -175.058)"/>
      <path id="Path_29" data-name="Path 29" d="M294.1,299.049a3.033,3.033,0,1,1-3.033-3.033A3.033,3.033,0,0,1,294.1,299.049Zm0,0" transform="translate(-233.436 -239.895)"/>
    </g>
    <rect id="Rectangle_6" data-name="Rectangle 6" width="133" height="115" transform="translate(95 556)" fill="none"/>
  </g>
</svg>
