<svg xmlns="http://www.w3.org/2000/svg" xmlns:xlink="http://www.w3.org/1999/xlink" viewBox="0 0 133.42 72.24"><defs><style>.cls-1{fill:none;}.cls-2{fill:#4284f3;}.cls-3{fill:#e94335;}.cls-4{fill:#34a753;}.cls-5{clip-path:url(#clip-path);}.cls-6{fill:#3572c8;}.cls-7{clip-path:url(#clip-path-2);}.cls-8{fill:#be312b;}.cls-9{clip-path:url(#clip-path-3);}.cls-10{clip-path:url(#clip-path-4);}.cls-11{fill:#29863f;}.cls-12{fill:#fabb05;}.cls-13{fill:#fff;}</style><clipPath id="clip-path"><path class="cls-1" d="M70.19,19,68,21.24a29.09,29.09,0,0,1,3.21,8,20.1,20.1,0,0,1,.86,6.46,18.79,18.79,0,0,1-.37,4.08,5.57,5.57,0,0,0-6.6-1.2c.08-.84.19-2.08.18-2.88a22.22,22.22,0,1,0-7,16.49,23.06,23.06,0,0,0,1.62-1.78L60,59.32c-.36.24-.84.6-1.28.9a28.78,28.78,0,0,1-9.05,3.84l-.25,6,0,.37a1.45,1.45,0,0,1-1.44,1.36H38.12a1.47,1.47,0,0,1-1.45-1.36l-.26-6.32a28.66,28.66,0,0,1-8.85-3.71L23.46,64l-.6.52a1.44,1.44,0,0,1-2-.12l-6.77-7.1a1.45,1.45,0,0,1,0-2l4.21-4.36a28.52,28.52,0,0,1-3.42-8.31l-6.25-.26a1.46,1.46,0,0,1-1.35-1.45V31.08a1.45,1.45,0,0,1,1.35-1.45l6.2-.26a28.82,28.82,0,0,1,3.29-8.2l-4.34-4.72a1.44,1.44,0,0,1,.07-2l6.93-6.94a1.45,1.45,0,0,1,2-.07l4.52,4.16a28.68,28.68,0,0,1,9.13-3.9l.26-6.37A1.46,1.46,0,0,1,38.12,0h9.82a1.44,1.44,0,0,1,1.44,1.35l.18,4.2.09,2.17a29,29,0,0,1,9.2,3.94l3.24-2.85,1.56-1.37a1.46,1.46,0,0,1,2,.12l6.77,7.1a1.45,1.45,0,0,1,0,2Z"/></clipPath><clipPath id="clip-path-2"><path class="cls-1" d="M33.66,34.56H26.35a.58.58,0,0,0-.57.58v11a20.49,20.49,0,0,0,8.45,7.47V35.14A.58.58,0,0,0,33.66,34.56Z"/></clipPath><clipPath id="clip-path-3"><path class="cls-1" d="M46.68,29.27h-7.3a.58.58,0,0,0-.58.58V55.17a20.55,20.55,0,0,0,8.46,0V29.85A.58.58,0,0,0,46.68,29.27Z"/></clipPath><clipPath id="clip-path-4"><path class="cls-1" d="M60.28,46.16V24.61A.58.58,0,0,0,59.7,24H52.4a.58.58,0,0,0-.58.57v29A20.52,20.52,0,0,0,60.28,46.16Z"/></clipPath></defs><g id="Layer_2" data-name="Layer 2"><g id="Layer_1-2" data-name="Layer 1"><g id="RGB_Digital_Version_logo" data-name="RGB Digital Version logo"><g id="Logo_4" data-name="Logo 4"><g id="IMS"><g id="Icon"><path class="cls-2" d="M70.19,19,68,21.24a29.09,29.09,0,0,1,3.21,8,20.1,20.1,0,0,1,.86,6.46,18.79,18.79,0,0,1-.37,4.08,5.57,5.57,0,0,0-6.6-1.2c.08-.84.19-2.08.18-2.88a22.22,22.22,0,1,0-7,16.49,23.06,23.06,0,0,0,1.62-1.78L60,59.32c-.36.24-.84.6-1.28.9a28.78,28.78,0,0,1-9.05,3.84l-.25,6,0,.37a1.45,1.45,0,0,1-1.44,1.36H38.12a1.47,1.47,0,0,1-1.45-1.36l-.26-6.32a28.66,28.66,0,0,1-8.85-3.71L23.46,64l-.6.52a1.44,1.44,0,0,1-2-.12l-6.77-7.1a1.45,1.45,0,0,1,0-2l4.21-4.36a28.52,28.52,0,0,1-3.42-8.31l-6.25-.26a1.46,1.46,0,0,1-1.35-1.45V31.08a1.45,1.45,0,0,1,1.35-1.45l6.2-.26a28.82,28.82,0,0,1,3.29-8.2l-4.34-4.72a1.44,1.44,0,0,1,.07-2l6.93-6.94a1.45,1.45,0,0,1,2-.07l4.52,4.16a28.68,28.68,0,0,1,9.13-3.9l.26-6.37A1.46,1.46,0,0,1,38.12,0h9.82a1.44,1.44,0,0,1,1.44,1.35l.18,4.2.09,2.17a29,29,0,0,1,9.2,3.94l3.24-2.85,1.56-1.37a1.46,1.46,0,0,1,2,.12l6.77,7.1a1.45,1.45,0,0,1,0,2Z"/><path class="cls-3" d="M33.66,34.56H26.35a.58.58,0,0,0-.57.58v11a20.49,20.49,0,0,0,8.45,7.47V35.14A.58.58,0,0,0,33.66,34.56Z"/><path class="cls-2" d="M46.68,29.27h-7.3a.58.58,0,0,0-.58.58V55.17a20.55,20.55,0,0,0,8.46,0V29.85A.58.58,0,0,0,46.68,29.27Z"/><path class="cls-4" d="M60.28,46.16V24.61A.58.58,0,0,0,59.7,24H52.4a.58.58,0,0,0-.58.57v29A20.52,20.52,0,0,0,60.28,46.16Z"/><g class="cls-5"><path class="cls-6" d="M1.79,43.46c32.27,8,60.4-1.82,78.71-29.5h0C65.49,53.11,22.11,53.11,1.79,43.46Z"/></g><g class="cls-7"><path class="cls-8" d="M1.79,43.46c32.27,8,60.4-1.82,78.71-29.5h0C65.49,53.11,22.11,53.11,1.79,43.46Z"/></g><g class="cls-9"><path class="cls-6" d="M1.79,43.46c32.27,8,60.4-1.82,78.71-29.5h0C65.49,53.11,22.11,53.11,1.79,43.46Z"/></g><g class="cls-10"><path class="cls-11" d="M1.79,43.46c32.27,8,60.4-1.82,78.71-29.5h0C65.49,53.11,22.11,53.11,1.79,43.46Z"/></g><path class="cls-12" d="M0,42.77c33.3,5.76,60.68-1.87,79-29.55l-3.85-.55L84,5.52,83.11,17l-2.64-3C59.14,54.79,19.66,50.06,0,42.77Z"/></g><path class="cls-13" d="M65,47.33a3.23,3.23,0,0,1,0-4.75,3.78,3.78,0,0,1,2.68-1,3.89,3.89,0,0,1,2.68.92,3,3,0,0,1,1,2.3,3.24,3.24,0,0,1-1,2.47,3.71,3.71,0,0,1-2.68,1A3.78,3.78,0,0,1,65,47.33Zm-.31,3.83h6V71.78h-6Z"/><path class="cls-13" d="M101.05,71.78l0-16.09L93.12,68.94h-2.8L82.47,56V71.78H76.64V45h5.14l10,16.66L101.7,45h5.09l.08,26.82Z"/><path class="cls-13" d="M115.89,71.37a14.31,14.31,0,0,1-4.77-2.24l2.11-4.67a14.41,14.41,0,0,0,4.1,2,15.42,15.42,0,0,0,4.75.77,7.63,7.63,0,0,0,3.91-.79,2.37,2.37,0,0,0,1.26-2.09,2,2,0,0,0-.74-1.59,5.62,5.62,0,0,0-1.92-1c-.78-.26-1.83-.54-3.16-.85a43.9,43.9,0,0,1-5-1.45,8.23,8.23,0,0,1-3.35-2.34,6.31,6.31,0,0,1-1.4-4.29,7.46,7.46,0,0,1,1.26-4.23,8.52,8.52,0,0,1,3.82-3A15.52,15.52,0,0,1,123,44.5a20.54,20.54,0,0,1,5,.61,14.9,14.9,0,0,1,4.29,1.76l-1.91,4.72a14.93,14.93,0,0,0-7.44-2.11,7,7,0,0,0-3.85.84,2.56,2.56,0,0,0-1.24,2.22,2.17,2.17,0,0,0,1.44,2.05,22.31,22.31,0,0,0,4.38,1.33,43.9,43.9,0,0,1,5,1.45,8.33,8.33,0,0,1,3.35,2.3,6.12,6.12,0,0,1,1.4,4.25,7.37,7.37,0,0,1-1.28,4.2,8.75,8.75,0,0,1-3.85,3A15.74,15.74,0,0,1,122,72.24,21.76,21.76,0,0,1,115.89,71.37Z"/></g></g></g></g></g></svg>