<svg width="168" height="96" viewBox="0 0 168 96" fill="none" xmlns="http://www.w3.org/2000/svg">
<path d="M60.3897 11.0746C60.1972 10.9963 59.9978 10.9372 59.7943 10.8983C59.9978 10.9375 60.1971 10.9965 60.3897 11.0746ZM59.1106 10.849H59.1724H59.1106ZM59.1724 10.849C59.2086 10.849 59.2464 10.849 59.2859 10.849H59.3213C59.4007 10.849 59.4789 10.8568 59.5559 10.8659C59.4777 10.8555 59.3995 10.8503 59.32 10.8477C59.2695 10.8426 59.2203 10.8439 59.1724 10.8452V10.849Z" fill="#6C757D"/>
<g filter="url(#filter0_d_103_8446)">
<path d="M44.5196 18.641H44.5285V16.461H44.4969V16.4234C44.4969 15.9724 44.4969 11.5735 44.4969 9.60869C44.4969 8.54462 43.9684 8.13117 42.9466 8.38002C32.2876 10.976 8.04037 16.9794 8.04037 16.9794L15.6089 16.5193C15.6948 16.5142 15.7808 16.5271 15.8616 16.5574C15.9424 16.5877 16.0163 16.6346 16.0788 16.6953C16.1413 16.756 16.191 16.8292 16.225 16.9103C16.2589 16.9915 16.2764 17.079 16.2762 17.1673V63.1517C16.2764 63.2402 16.2589 63.3277 16.2249 63.409C16.1908 63.4903 16.141 63.5635 16.0783 63.6242C16.0157 63.685 15.9416 63.7318 15.8607 63.762C15.7797 63.7922 15.6936 63.805 15.6077 63.7997L8 63.3344C8 63.3344 40.0479 71.2288 42.9416 71.9299C43.9634 72.1788 44.4906 71.764 44.4932 70.7C44.4932 69.9146 44.4932 69.1291 44.4932 68.3424V63.8321H44.5247V61.6535H44.5159L44.5196 18.641ZM40.8211 66.7975C40.8222 66.8915 40.8033 66.9845 40.7659 67.0702C40.7284 67.1559 40.6733 67.2322 40.6043 67.2939C40.5353 67.3555 40.4541 67.401 40.3663 67.4272C40.2785 67.4534 40.1862 67.4597 40.0958 67.4456L18.9681 64.1367C18.8177 64.1133 18.6806 64.0348 18.5821 63.9157C18.4836 63.7966 18.4303 63.645 18.432 63.4887V16.8096C18.4318 16.6544 18.4858 16.5044 18.5842 16.3866C18.6826 16.2689 18.8188 16.1913 18.9681 16.1681L40.0958 12.8644C40.1856 12.8504 40.2772 12.8565 40.3645 12.8822C40.4517 12.908 40.5326 12.9528 40.6014 13.0136C40.6703 13.0743 40.7256 13.1497 40.7635 13.2344C40.8014 13.3192 40.8211 13.4114 40.8211 13.5047V66.7975Z" fill="url(#paint0_linear_103_8446)"/>
</g>
<g filter="url(#filter1_d_103_8446)">
<path d="M58.5809 16.4183V63.8892C58.5809 65.2164 58.2252 65.5236 56.941 65.3642C53.1643 64.8963 45.1 63.9061 44.5323 63.8361V61.6535H54.2618C54.429 61.6535 54.5895 61.5853 54.7077 61.4637C54.826 61.3422 54.8925 61.1774 54.8925 61.0055V19.2891C54.8925 19.1172 54.826 18.9524 54.7077 18.8308C54.5895 18.7093 54.429 18.641 54.2618 18.641H44.5286V16.4611C45.1404 16.3859 54.4497 15.2363 57.3523 14.8799C58.0624 14.793 58.5569 15.2531 58.5809 15.9919C58.5847 16.1319 58.5809 16.2744 58.5809 16.4183Z" fill="url(#paint1_linear_103_8446)"/>
</g>
<g filter="url(#filter2_d_103_8446)">
<path d="M65.2587 14.1565C65.2675 14.557 65.0884 14.8331 64.6961 14.846C64.3038 14.859 64.1259 14.6037 64.0994 14.198C63.9102 11.3156 62.1215 9.46219 59.2972 9.19002C58.9187 9.15373 58.5756 9.03449 58.5958 8.57828C58.616 8.12206 58.9578 7.99375 59.3741 8.00023H59.5356H59.6428L59.8055 8.01319C59.8699 8.01319 59.9317 8.02615 59.996 8.03522C60.0603 8.0443 60.0931 8.04819 60.1411 8.05726C60.189 8.06633 60.2546 8.0754 60.3114 8.08707C60.3416 8.08707 60.3706 8.09744 60.3997 8.10392L60.493 8.12465L60.6482 8.16224C60.7087 8.17779 60.7743 8.19594 60.8311 8.21408L60.8765 8.22704C60.9362 8.24519 60.9955 8.26463 61.0543 8.28536L61.1893 8.33332C61.2347 8.34887 61.2789 8.36702 61.323 8.38516L61.3987 8.42534C61.4224 8.43393 61.4455 8.44389 61.4681 8.45515C61.5387 8.48626 61.6094 8.51736 61.6787 8.55106C61.7481 8.58476 61.7923 8.60549 61.8478 8.6353L61.96 8.69492L62.0345 8.73769L62.1442 8.8012C62.2401 8.8565 62.3347 8.91612 62.428 8.98006C62.4596 9.00209 62.4911 9.02283 62.5226 9.04616C63.2098 9.52618 63.7986 10.14 64.2559 10.8529C64.3 10.9229 64.3442 10.9941 64.382 11.0654C64.4198 11.1367 64.4678 11.2132 64.5081 11.2896C64.5485 11.3661 64.5876 11.4413 64.6255 11.5178C64.6633 11.5942 64.6986 11.672 64.7327 11.751C64.7327 11.7666 64.7465 11.7821 64.7541 11.799C64.7617 11.8158 64.7806 11.8625 64.7932 11.8936C64.8361 11.9986 64.8752 12.1036 64.9118 12.2111C64.9345 12.2759 64.9559 12.3408 64.9761 12.4056C64.995 12.4678 65.014 12.5352 65.0316 12.5948C65.0581 12.6907 65.0821 12.7866 65.1035 12.8838C65.1212 12.9616 65.1376 13.0393 65.1515 13.1184C65.1653 13.1974 65.1792 13.2765 65.1906 13.3556C65.2019 13.4346 65.212 13.515 65.2196 13.594C65.2271 13.6731 65.2335 13.7457 65.2385 13.8209C65.2436 13.896 65.2473 13.9868 65.2499 14.071C65.2574 14.0736 65.2574 14.1151 65.2587 14.1565Z" fill="url(#paint2_linear_103_8446)"/>
</g>
<g filter="url(#filter3_d_103_8446)">
<path d="M62.4935 14.1191C62.5036 14.5079 62.3762 14.8086 61.9738 14.8475C61.5714 14.8864 61.3885 14.6116 61.3292 14.2306C61.0997 12.7738 60.5812 12.2359 59.2163 12.0428C58.8467 11.9897 58.5667 11.8303 58.5856 11.4065C58.5874 11.3629 58.5929 11.3195 58.602 11.2769C58.6014 11.2674 58.6014 11.2578 58.602 11.2483C58.6034 11.2385 58.6059 11.229 58.6096 11.2198C58.6096 11.2017 58.6209 11.1848 58.6273 11.168C58.6332 11.1529 58.6399 11.1382 58.6474 11.1239C58.6468 11.1225 58.6465 11.1209 58.6465 11.1194C58.6465 11.1178 58.6468 11.1163 58.6474 11.1149C58.6538 11.1019 58.661 11.0893 58.6689 11.0773C58.6851 11.0491 58.7056 11.0238 58.7294 11.0021L58.7685 10.9658C58.7831 10.9545 58.7982 10.9442 58.8139 10.9347L58.848 10.9166C58.8504 10.9157 58.8531 10.9157 58.8556 10.9166L58.8757 10.9062L58.9123 10.8919L58.9363 10.8842C58.9451 10.8798 58.9544 10.8767 58.9641 10.8751L59.0057 10.8647H59.0334C59.0511 10.8647 59.07 10.8647 59.0889 10.8569H59.147C59.1949 10.8569 59.2441 10.8569 59.2945 10.8569C59.374 10.8569 59.4522 10.8647 59.5304 10.8751H59.5582L59.649 10.888C59.6877 10.8932 59.7268 10.8997 59.7663 10.9075C59.979 10.9417 60.1877 10.9977 60.3895 11.0747C60.5975 11.1594 60.7966 11.2658 60.9836 11.3922C61.0391 11.4285 61.0921 11.4674 61.1451 11.5089C61.181 11.5341 61.2155 11.5614 61.2485 11.5905L61.3204 11.6501C61.3809 11.702 61.439 11.7564 61.4945 11.8134L61.5512 11.8718C61.5853 11.9054 61.6168 11.9417 61.6484 11.978C61.7127 12.0506 61.7745 12.1271 61.8313 12.2048C61.8616 12.245 61.8893 12.2852 61.9158 12.3254C62.0273 12.4887 62.124 12.6623 62.2047 12.8438L62.2362 12.9151L62.2589 12.9708C62.269 12.9941 62.2778 13.0201 62.2867 13.0434C62.3207 13.1354 62.3522 13.2287 62.3775 13.3246C62.3926 13.3752 62.4052 13.427 62.4166 13.4789C62.4279 13.5307 62.4355 13.567 62.4431 13.6085C62.4506 13.65 62.4633 13.7264 62.4708 13.7847C62.4843 13.8957 62.4918 14.0073 62.4935 14.1191Z" fill="url(#paint3_linear_103_8446)"/>
</g>
<g clip-path="url(#clip0_103_8446)">
<path d="M90.3727 16.2837C90.3955 16.5503 90.3225 16.8162 90.1673 17.0316C90.0718 17.1189 89.9595 17.1848 89.8376 17.2251C89.7158 17.2653 89.587 17.279 89.4597 17.2653H86.0816C85.9666 17.2781 85.8503 17.266 85.7401 17.2298C85.63 17.1935 85.5286 17.134 85.4424 17.055C85.3041 16.8588 85.2393 16.6182 85.2598 16.3772V12.1234C85.2598 11.5936 85.4881 11.3287 85.9446 11.3287H89.7336C89.8201 11.3271 89.906 11.3451 89.9849 11.3814C90.0638 11.4178 90.1339 11.4716 90.1901 11.5391C90.315 11.6882 90.3802 11.8803 90.3727 12.0766V16.2837ZM90.2358 45.1253C90.2503 45.2504 90.2395 45.3771 90.2041 45.4977C90.1688 45.6184 90.1097 45.7303 90.0303 45.8265C89.8233 45.9721 89.5727 46.0383 89.3227 46.0135H86.2185C85.9934 46.0362 85.7676 45.9784 85.5794 45.8498C85.5105 45.7711 85.4586 45.6784 85.4271 45.5777C85.3956 45.477 85.3853 45.3706 85.3968 45.2655V21.9398C85.3802 21.7498 85.4286 21.5598 85.5337 21.4023C85.6019 21.3393 85.6824 21.2921 85.77 21.2639C85.8575 21.2356 85.9499 21.227 86.041 21.2387H89.693C90.0582 21.2387 90.2408 21.4568 90.2408 21.8931L90.2358 45.1253Z" fill="#034BC0"/>
<path d="M99.7766 45.2188V12.0299C99.7601 11.8399 99.8085 11.6499 99.9136 11.4924C99.9817 11.4294 100.062 11.3822 100.15 11.354C100.237 11.3257 100.33 11.3171 100.421 11.3288H106.401C106.605 11.3135 106.81 11.3538 106.994 11.4456C107.136 11.554 107.234 11.7122 107.268 11.8897L116.399 36.4308C116.49 36.7113 116.596 36.8515 116.718 36.8515C116.809 36.8515 116.931 36.6957 117.083 36.384L126.076 12.0767C126.259 11.5781 126.533 11.3288 126.898 11.3288H133.107C133.502 11.3288 133.7 11.5625 133.7 12.0299V45.1721C133.726 45.2881 133.723 45.4089 133.691 45.5234C133.659 45.6378 133.599 45.7421 133.517 45.8262C133.435 45.9104 133.333 45.9718 133.222 46.0046C133.11 46.0373 132.992 46.0404 132.878 46.0135H128.947C128.737 46.0326 128.527 45.9746 128.354 45.8499C128.285 45.7712 128.233 45.6784 128.202 45.5777C128.17 45.477 128.16 45.3706 128.171 45.2656V19.6494C128.171 19.4935 128.141 19.4234 128.08 19.439C128.019 19.4546 127.958 19.5411 127.897 19.6987L118.493 45.3617C118.443 45.5556 118.33 45.7262 118.172 45.8453C118.015 45.9643 117.822 46.0245 117.626 46.0161H114.887C114.685 46.0295 114.485 45.9782 114.313 45.8693C114.141 45.7603 114.007 45.5992 113.928 45.4084L104.717 19.9766C104.656 19.7584 104.588 19.6571 104.512 19.6727C104.436 19.6883 104.397 19.7896 104.397 19.9766V45.3591C104.419 45.5438 104.37 45.7298 104.261 45.8785C104.101 45.9924 103.906 46.0423 103.713 46.0187H100.507C100.02 46.0152 99.7766 45.7486 99.7766 45.2188Z" fill="#034BC0"/>
<path d="M159.625 15.9098C158.441 15.3177 156.996 15.0217 155.288 15.0217C153.127 15.0217 151.446 15.4814 150.244 16.4007C149.041 17.32 148.44 18.5899 148.44 20.2104C148.44 22.3606 149.932 23.95 152.914 24.9783L159.762 27.1754C164.936 28.827 167.522 31.9434 167.522 36.5244C167.522 39.6095 166.404 42.0403 164.167 43.8166C161.93 45.5929 158.864 46.481 154.968 46.481C152.077 46.481 149.521 45.9668 147.299 44.9384C145.201 44.0156 143.409 42.4893 142.141 40.5444C142.057 40.3992 141.995 40.2415 141.958 40.077C141.972 39.9307 142.021 39.7903 142.101 39.668C142.18 39.5457 142.288 39.4454 142.415 39.3758L144.651 37.7865C144.863 37.6223 145.117 37.5248 145.382 37.506C145.493 37.5092 145.601 37.5409 145.696 37.598C145.792 37.6552 145.872 37.7361 145.93 37.8332C147.177 39.4849 148.418 40.6535 149.65 41.3391C150.883 42.0247 152.549 42.3709 154.649 42.3779C157.016 42.3779 158.876 41.9571 160.228 41.1157C161.581 40.2743 162.251 38.9655 162.237 37.1892C162.269 36.1476 161.906 35.1338 161.223 34.3611C160.538 33.5976 159.298 32.8886 157.502 32.2342L150.609 29.9437C148.144 29.1023 146.295 27.8713 145.062 26.2508C143.858 24.7134 143.205 22.7993 143.213 20.8284C143.182 18.974 143.708 17.1544 144.72 15.6164C145.775 14.0622 147.239 12.8465 148.943 12.1105C150.753 11.2847 152.846 10.8718 155.22 10.8718C157.404 10.8399 159.572 11.2695 161.588 12.1339C163.388 12.8999 164.99 14.0841 166.267 15.593C166.338 15.6589 166.395 15.739 166.434 15.8284C166.473 15.9178 166.494 16.0144 166.495 16.1124C166.496 16.2032 166.475 16.2929 166.436 16.3741C166.396 16.4554 166.338 16.5258 166.267 16.5798L163.665 18.6366C163.562 18.7233 163.433 18.7726 163.3 18.7768C163.208 18.7768 163.026 18.6366 162.752 18.3561C161.881 17.3331 160.818 16.501 159.625 15.9098Z" fill="#034BC0"/>
</g>
<g clip-path="url(#clip1_103_8446)">
<path d="M89.6507 56.7222C88.7176 56.7222 87.9779 56.9414 87.4316 57.38C86.8854 57.8185 86.6122 58.4364 86.6122 59.2337C86.6122 60.2588 87.2837 61.0105 88.6265 61.4889L91.0154 62.3432C92.0067 62.6963 92.718 63.1348 93.1492 63.6588C93.5804 64.1827 93.7969 64.8202 93.7988 65.5713C93.7988 66.6192 93.4195 67.4365 92.6608 68.0231C91.9021 68.6096 90.8637 68.9029 89.5455 68.9029C88.5769 68.9029 87.7376 68.7292 87.0276 68.3818C86.2966 68.0179 85.6749 67.4668 85.2258 66.7844C85.1974 66.7439 85.1798 66.6969 85.1746 66.6477C85.1746 66.5794 85.2258 66.511 85.3282 66.4427L85.6184 66.2377C85.6743 66.1857 85.747 66.1554 85.8232 66.1522C85.8834 66.1602 85.9383 66.1908 85.9769 66.2377C86.4776 66.8869 86.9811 67.3539 87.4876 67.6386C87.994 67.9234 88.6739 68.0658 89.5275 68.0658C90.5624 68.0658 91.3704 67.8721 91.9514 67.4849C92.5324 67.0976 92.8236 66.4829 92.8248 65.6406C92.84 65.1574 92.6793 64.6852 92.3725 64.3118C92.0696 63.953 91.4918 63.6141 90.6389 63.2952L88.0623 62.3214C87.1967 62.005 86.5794 61.5778 86.2101 61.04C85.8468 60.5254 85.6529 59.9103 85.6554 59.2802C85.6554 58.2209 86.0224 57.3894 86.7564 56.7858C87.4904 56.1821 88.4666 55.8834 89.6849 55.8897C91.1871 55.8897 92.4446 56.4422 93.4574 57.547C93.497 57.5818 93.5212 57.631 93.5247 57.6837C93.518 57.7306 93.4939 57.7732 93.4574 57.8033L92.9955 58.1962C92.9747 58.2231 92.9446 58.2414 92.9111 58.2475C92.877 58.2475 92.8258 58.2019 92.7575 58.1108C91.9603 57.1851 90.9247 56.7222 89.6507 56.7222Z" fill="#6C757D"/>
<path d="M105.748 56.1157C105.759 56.1392 105.763 56.1651 105.76 56.1907C105.757 56.2163 105.747 56.2406 105.731 56.261L101.653 63.1463C101.62 63.1979 101.6 63.2564 101.593 63.3171C101.587 63.391 101.584 63.4651 101.585 63.5392V68.4939C101.589 68.5281 101.586 68.5627 101.575 68.5955C101.565 68.6283 101.547 68.6584 101.524 68.6838C101.461 68.7245 101.386 68.7426 101.311 68.735H100.817C100.789 68.739 100.761 68.7364 100.734 68.7275C100.707 68.7186 100.683 68.7036 100.663 68.6837C100.643 68.6639 100.628 68.6396 100.619 68.6129C100.61 68.5862 100.608 68.5579 100.612 68.53V63.6949C100.611 63.5682 100.576 63.444 100.509 63.3361L96.3614 56.28C96.3378 56.2446 96.3259 56.2028 96.3273 56.1604C96.3273 56.092 96.3832 56.0578 96.498 56.0578H97.0783C97.1397 56.0542 97.201 56.0659 97.2566 56.092C97.309 56.1278 97.353 56.1744 97.3856 56.2287L100.868 62.1743C100.947 62.311 101.022 62.3794 101.09 62.3794C101.135 62.3794 101.198 62.3224 101.28 62.2085L104.745 56.2287C104.771 56.1705 104.812 56.1204 104.864 56.0835C104.919 56.0628 104.977 56.0541 105.035 56.0578H105.615C105.641 56.0549 105.666 56.0587 105.69 56.0689C105.713 56.0791 105.733 56.0952 105.748 56.1157Z" fill="#6C757D"/>
<path d="M112.474 56.7223C111.539 56.7223 110.8 56.9415 110.255 57.3801C109.71 57.8186 109.437 58.4365 109.435 59.2338C109.435 60.2589 110.107 61.0107 111.45 61.489L113.839 62.3433C114.829 62.6964 115.541 63.1349 115.973 63.6589C116.406 64.1828 116.622 64.8207 116.622 65.5724C116.622 66.6203 116.242 67.4375 115.484 68.0241C114.725 68.6107 113.687 68.904 112.368 68.904C111.401 68.904 110.561 68.7303 109.851 68.3829C109.119 68.0193 108.498 67.468 108.049 66.7854C108.02 66.745 108.003 66.6979 107.998 66.6488C107.998 66.5804 108.049 66.5121 108.151 66.4437L108.441 66.2387C108.497 66.1867 108.57 66.1565 108.646 66.1533C108.706 66.1613 108.761 66.1918 108.8 66.2387C109.299 66.888 109.803 67.355 110.311 67.6397C110.818 67.9245 111.498 68.0668 112.35 68.0668C113.385 68.0668 114.193 67.8732 114.774 67.4859C115.356 67.0987 115.646 66.4836 115.645 65.6407C115.66 65.1575 115.499 64.6853 115.193 64.3119C114.89 63.9531 114.312 63.6143 113.46 63.2953L110.882 62.3215C110.017 62.0051 109.4 61.578 109.03 61.0401C108.667 60.5257 108.473 59.9104 108.476 59.2803C108.476 58.221 108.843 57.3896 109.577 56.7859C110.311 56.1822 111.286 55.8804 112.504 55.8804C114.006 55.8804 115.264 56.4328 116.277 57.5376C116.316 57.5724 116.341 57.6215 116.345 57.6743C116.338 57.7213 116.314 57.764 116.277 57.7939L115.815 58.1869C115.794 58.2138 115.764 58.232 115.73 58.2381C115.696 58.2381 115.645 58.1926 115.577 58.1014C114.782 57.182 113.748 56.7223 112.474 56.7223Z" fill="#6C757D"/>
<path d="M119.318 56.1926C119.315 56.1741 119.317 56.1551 119.323 56.1373C119.329 56.1195 119.339 56.1033 119.352 56.09C119.365 56.0767 119.381 56.0667 119.399 56.0608C119.417 56.0549 119.436 56.0532 119.454 56.0559H128.331C128.35 56.0532 128.368 56.0549 128.386 56.0608C128.404 56.0667 128.42 56.0767 128.434 56.09C128.447 56.1033 128.457 56.1195 128.463 56.1373C128.469 56.1551 128.47 56.1741 128.468 56.1926V56.7441C128.47 56.764 128.469 56.7843 128.463 56.8035C128.457 56.8227 128.447 56.8403 128.433 56.8552C128.397 56.8756 128.355 56.8845 128.314 56.8808H124.729C124.682 56.8762 124.635 56.885 124.593 56.9064C124.57 56.9235 124.558 56.9662 124.558 57.0345V68.5499C124.563 68.6008 124.551 68.6517 124.524 68.6952C124.506 68.7118 124.484 68.7243 124.461 68.7316C124.437 68.739 124.412 68.7411 124.388 68.7379H123.756C123.705 68.7425 123.654 68.7305 123.611 68.7037C123.583 68.6809 123.568 68.6297 123.568 68.5499V57.0289C123.568 56.9605 123.557 56.9178 123.534 56.9007C123.492 56.8793 123.445 56.8705 123.398 56.8751H119.473C119.432 56.8788 119.39 56.8699 119.354 56.8495C119.34 56.8346 119.33 56.817 119.324 56.7978C119.319 56.7786 119.317 56.7583 119.32 56.7384L119.318 56.1926Z" fill="#6C757D"/>
<path d="M132.018 56.09C132.058 56.0622 132.106 56.0501 132.155 56.0559H139.375C139.455 56.0559 139.495 56.1014 139.495 56.1925V56.7222C139.499 56.765 139.487 56.8078 139.461 56.8418C139.427 56.8681 139.384 56.8804 139.341 56.8759H133.129C133.082 56.8713 133.035 56.8802 132.993 56.9016C132.97 56.9187 132.959 56.9614 132.959 57.0297V61.7756C132.956 61.7955 132.957 61.8158 132.963 61.835C132.969 61.8542 132.979 61.8718 132.993 61.8866C133.035 61.908 133.082 61.9169 133.129 61.9123H137.943C137.962 61.9096 137.981 61.9112 137.999 61.9171C138.016 61.9231 138.033 61.933 138.046 61.9463C138.059 61.9596 138.069 61.9758 138.075 61.9936C138.081 62.0114 138.083 62.0304 138.08 62.049V62.5957C138.083 62.6156 138.081 62.6358 138.075 62.6551C138.069 62.6743 138.059 62.6919 138.046 62.7067C138.009 62.7271 137.968 62.7361 137.926 62.7324H133.129C133.082 62.7277 133.035 62.7366 132.993 62.758C132.97 62.7751 132.959 62.8178 132.959 62.8861V67.7554C132.959 67.8237 132.97 67.8665 132.993 67.8835C133.035 67.9049 133.082 67.9138 133.129 67.9092H139.599C139.641 67.9055 139.682 67.9144 139.719 67.9348C139.732 67.9496 139.742 67.9673 139.748 67.9865C139.754 68.0057 139.756 68.026 139.753 68.0458V68.5926C139.755 68.6112 139.754 68.6301 139.748 68.6479C139.742 68.6657 139.732 68.6819 139.719 68.6952C139.705 68.7085 139.689 68.7185 139.671 68.7244C139.654 68.7303 139.635 68.732 139.616 68.7293H132.156C132.108 68.7351 132.06 68.7229 132.02 68.6951C131.991 68.6494 131.979 68.595 131.986 68.5413V56.24C131.979 56.1878 131.991 56.1349 132.018 56.09Z" fill="#6C757D"/>
<path d="M143.353 68.5451V56.2438C143.346 56.1901 143.358 56.1357 143.387 56.09C143.427 56.0622 143.475 56.05 143.523 56.0558H144.24C144.292 56.0498 144.344 56.0619 144.387 56.0899C144.431 56.1179 144.463 56.1602 144.479 56.2096L148.866 67.2798C148.9 67.3823 148.94 67.4336 148.986 67.4336C149.031 67.4336 149.077 67.3767 149.122 67.2628L153.561 56.1916C153.575 56.1491 153.602 56.1125 153.639 56.0878C153.677 56.063 153.721 56.0514 153.765 56.0549H154.534C154.582 56.0491 154.63 56.0612 154.67 56.0891C154.699 56.1348 154.711 56.1892 154.704 56.2428V68.5441C154.704 68.6707 154.647 68.734 154.534 68.734H153.919C153.868 68.7386 153.817 68.7266 153.774 68.6998C153.757 68.6815 153.745 68.6598 153.738 68.6362C153.73 68.6126 153.728 68.5876 153.731 68.5631V58.1915C153.731 58.1459 153.723 58.126 153.706 58.1317C153.689 58.1374 153.674 58.1573 153.663 58.1915L149.536 68.5451C149.516 68.605 149.477 68.6564 149.424 68.6909C149.371 68.7253 149.308 68.7409 149.246 68.7349H148.699C148.529 68.7349 148.421 68.6716 148.375 68.5451L144.312 58.2769C144.301 58.2427 144.29 58.2228 144.278 58.2171C144.267 58.2114 144.261 58.2313 144.261 58.2769V68.5622C144.261 68.6761 144.198 68.733 144.072 68.733H143.525C143.41 68.733 143.353 68.6704 143.353 68.5451Z" fill="#6C757D"/>
<path d="M162.864 56.7222C161.931 56.7222 161.191 56.9414 160.645 57.38C160.099 57.8185 159.825 58.4364 159.825 59.2337C159.825 60.2588 160.497 61.0105 161.84 61.4889L164.229 62.3432C165.22 62.6963 165.931 63.1348 166.363 63.6588C166.796 64.1827 167.012 64.8205 167.012 65.5723C167.012 66.6202 166.633 67.4374 165.874 68.024C165.115 68.6106 164.077 68.9039 162.759 68.9039C161.791 68.9039 160.952 68.7302 160.241 68.3828C159.51 68.0186 158.888 67.4675 158.439 66.7853C158.411 66.7448 158.393 66.6978 158.388 66.6487C158.388 66.5803 158.439 66.512 158.541 66.4436L158.832 66.2386C158.887 66.1866 158.96 66.1563 159.036 66.1532C159.097 66.1607 159.152 66.1913 159.19 66.2386C159.691 66.8878 160.194 67.3548 160.701 67.6396C161.207 67.9243 161.887 68.0667 162.741 68.0667C163.776 68.0667 164.584 67.8731 165.165 67.4858C165.745 67.0986 166.035 66.4835 166.035 65.6406C166.051 65.1573 165.89 64.6849 165.583 64.3118C165.281 63.953 164.704 63.6141 163.85 63.2952L161.273 62.3214C160.408 62.005 159.79 61.5778 159.42 61.04C159.057 60.5254 158.863 59.9103 158.866 59.2802C158.866 58.2209 159.233 57.3894 159.967 56.7858C160.701 56.1821 161.678 55.8834 162.898 55.8897C164.4 55.8897 165.658 56.4422 166.671 57.547C166.69 57.5641 166.707 57.585 166.718 57.6084C166.73 57.6319 166.737 57.6575 166.739 57.6837C166.732 57.7307 166.707 57.7734 166.671 57.8033L166.21 58.1962C166.188 58.2233 166.158 58.2415 166.124 58.2475C166.09 58.2475 166.039 58.2019 165.971 58.1108C165.174 57.1851 164.138 56.7222 162.864 56.7222Z" fill="#6C757D"/>
</g>
<defs>
<filter id="filter0_d_103_8446" x="0" y="0.309814" width="68.5286" height="95.6902" filterUnits="userSpaceOnUse" color-interpolation-filters="sRGB">
<feFlood flood-opacity="0" result="BackgroundImageFix"/>
<feColorMatrix in="SourceAlpha" type="matrix" values="0 0 0 0 0 0 0 0 0 0 0 0 0 0 0 0 0 0 127 0" result="hardAlpha"/>
<feOffset dx="8" dy="8"/>
<feGaussianBlur stdDeviation="8"/>
<feComposite in2="hardAlpha" operator="out"/>
<feColorMatrix type="matrix" values="0 0 0 0 0 0 0 0 0 0 0 0 0 0 0 0 0 0 0.35 0"/>
<feBlend mode="normal" in2="BackgroundImageFix" result="effect1_dropShadow_103_8446"/>
<feBlend mode="normal" in="SourceGraphic" in2="effect1_dropShadow_103_8446" result="shape"/>
</filter>
<filter id="filter1_d_103_8446" x="40.5286" y="10.8694" width="30.054" height="66.5332" filterUnits="userSpaceOnUse" color-interpolation-filters="sRGB">
<feFlood flood-opacity="0" result="BackgroundImageFix"/>
<feColorMatrix in="SourceAlpha" type="matrix" values="0 0 0 0 0 0 0 0 0 0 0 0 0 0 0 0 0 0 127 0" result="hardAlpha"/>
<feOffset dx="4" dy="4"/>
<feGaussianBlur stdDeviation="4"/>
<feComposite in2="hardAlpha" operator="out"/>
<feColorMatrix type="matrix" values="0 0 0 0 0 0 0 0 0 0 0 0 0 0 0 0 0 0 0.35 0"/>
<feBlend mode="normal" in2="BackgroundImageFix" result="effect1_dropShadow_103_8446"/>
<feBlend mode="normal" in="SourceGraphic" in2="effect1_dropShadow_103_8446" result="shape"/>
</filter>
<filter id="filter2_d_103_8446" x="46.595" y="0" width="38.6641" height="38.8464" filterUnits="userSpaceOnUse" color-interpolation-filters="sRGB">
<feFlood flood-opacity="0" result="BackgroundImageFix"/>
<feColorMatrix in="SourceAlpha" type="matrix" values="0 0 0 0 0 0 0 0 0 0 0 0 0 0 0 0 0 0 127 0" result="hardAlpha"/>
<feOffset dx="4" dy="8"/>
<feGaussianBlur stdDeviation="8"/>
<feComposite in2="hardAlpha" operator="out"/>
<feColorMatrix type="matrix" values="0 0 0 0 0 0 0 0 0 0 0 0 0 0 0 0 0 0 0.35 0"/>
<feBlend mode="normal" in2="BackgroundImageFix" result="effect1_dropShadow_103_8446"/>
<feBlend mode="normal" in="SourceGraphic" in2="effect1_dropShadow_103_8446" result="shape"/>
</filter>
<filter id="filter3_d_103_8446" x="46.5847" y="2.85693" width="35.9094" height="35.9941" filterUnits="userSpaceOnUse" color-interpolation-filters="sRGB">
<feFlood flood-opacity="0" result="BackgroundImageFix"/>
<feColorMatrix in="SourceAlpha" type="matrix" values="0 0 0 0 0 0 0 0 0 0 0 0 0 0 0 0 0 0 127 0" result="hardAlpha"/>
<feOffset dx="4" dy="8"/>
<feGaussianBlur stdDeviation="8"/>
<feComposite in2="hardAlpha" operator="out"/>
<feColorMatrix type="matrix" values="0 0 0 0 0 0 0 0 0 0 0 0 0 0 0 0 0 0 0.35 0"/>
<feBlend mode="normal" in2="BackgroundImageFix" result="effect1_dropShadow_103_8446"/>
<feBlend mode="normal" in="SourceGraphic" in2="effect1_dropShadow_103_8446" result="shape"/>
</filter>
<linearGradient id="paint0_linear_103_8446" x1="15.5837" y1="40.455" x2="43.0238" y2="40.1726" gradientUnits="userSpaceOnUse">
<stop stop-color="#009DF0"/>
<stop offset="1" stop-color="#034BC0"/>
</linearGradient>
<linearGradient id="paint1_linear_103_8446" x1="44.3166" y1="40.4059" x2="57.1986" y2="40.1554" gradientUnits="userSpaceOnUse">
<stop stop-color="#009DF0"/>
<stop offset="1" stop-color="#034BC0"/>
</linearGradient>
<linearGradient id="paint2_linear_103_8446" x1="59.3136" y1="14.0464" x2="63.379" y2="10.1866" gradientUnits="userSpaceOnUse">
<stop offset="0.05" stop-color="#009DF0"/>
<stop offset="1" stop-color="#034BC0"/>
</linearGradient>
<linearGradient id="paint3_linear_103_8446" x1="59.3261" y1="14.0608" x2="63.3928" y2="10.2011" gradientUnits="userSpaceOnUse">
<stop stop-color="#009DF0"/>
<stop offset="1" stop-color="#034BC0"/>
</linearGradient>
<clipPath id="clip0_103_8446">
<rect width="82.2625" height="35.6197" fill="white" transform="translate(85.2598 10.8613)"/>
</clipPath>
<clipPath id="clip1_103_8446">
<rect width="81.8335" height="13.0189" fill="white" transform="translate(85.1785 55.885)"/>
</clipPath>
</defs>
</svg>
