<svg xmlns="http://www.w3.org/2000/svg" width="2261" height="483" viewBox="0 0 2261 483">
  <g id="Group_69" data-name="Group 69" transform="translate(3874 -3707.776)">
    <rect id="Rectangle_22" data-name="Rectangle 22" width="2261" height="483" transform="translate(-3874 3707.776)" fill="none"/>
    <g id="XMLID_126_" transform="translate(-3749.453 3805.18)">
      <g id="XMLID_130_">
        <g id="XMLID_162_">
          <g id="XMLID_163_">
            <rect id="XMLID_174_" width="44.098" height="44.098" transform="translate(180.398 196.703) rotate(90.107)" fill="#5db9e8"/>
            <rect id="XMLID_173_" width="44.098" height="44.098" transform="translate(132.352 140.137) rotate(90.107)" fill="#f9a723"/>
            <rect id="XMLID_172_" width="40.207" height="44.098" transform="translate(100.747 52.126) rotate(90.107)" fill="#5db9e8"/>
            <rect id="XMLID_171_" width="35.945" height="40.207" transform="translate(224.662 92.663) rotate(90.107)" fill="#ea2029"/>
            <rect id="XMLID_170_" width="35.945" height="35.945" transform="translate(249.054 168.606) rotate(90.107)" fill="#2f4498"/>
            <rect id="XMLID_169_" width="35.945" height="35.945" transform="translate(245.112 20.332) rotate(90.107)" fill="#5db9e8"/>
            <rect id="XMLID_168_" width="64.294" height="68.185" transform="translate(180.831 0.128) rotate(90.107)" fill="#2f4498"/>
            <rect id="XMLID_167_" width="27.978" height="31.869" transform="translate(56.132 104.451) rotate(90.107)" fill="#73bd44"/>
            <rect id="XMLID_166_" width="27.978" height="31.869" transform="translate(160.225 96.561) rotate(90.107)" fill="#ef6226"/>
            <rect id="XMLID_165_" width="27.978" height="27.978" transform="translate(28.03 40.028) rotate(90.107)" fill="#2f4498"/>
            <rect id="XMLID_164_" width="20.196" height="20.196" transform="translate(72.374 152.419) rotate(90.107)" fill="#2f4498"/>
          </g>
        </g>
        <g id="XMLID_131_" transform="translate(308.768 49.56)">
          <g id="XMLID_124_">
            <g id="XMLID_139_">
              <path id="XMLID_142_" d="M336.2,519.469V370.5h42.43V519.469Z" transform="translate(-336.2 -323.043)" fill="#29384b"/>
              <path id="XMLID_141_" d="M613.812,539.937h-42.43V450.63c0-20.2,0-46.136.741-66.147-5.188,20.2-12.97,46.136-19.825,65.961l-30.016,89.493H476.145l-30.572-89.863c-6.485-19.455-14.267-45.395-19.084-65.22.741,20.2.741,45.765.741,65.961v89.307H384.8V346.5h67.073l47.989,157.677L547.85,346.5h65.961Z" transform="translate(-294.752 -343.512)" fill="#29384b"/>
              <path id="XMLID_140_" d="M689.592,404.943H646.05c-2.594-19.455-14.638-31.869-36.686-31.869-16.861,0-29.831,7.226-29.831,22.975,0,16.305,11.3,24.272,45.024,31.869,46.692,9.82,67.814,29.46,67.814,60.773,0,36.316-36.686,57.068-78.561,57.068-50.583,0-84.119-20.381-88.01-60.959h43.542c4.632,21.493,22.419,32.054,44.1,32.054,19.455,0,34.648-9.45,34.648-24.272,0-16.3-11.117-25.569-42.43-32.425-43.542-9.449-70.779-23.346-70.779-58.735,0-35.76,35.389-56.512,75.967-56.512C661.984,343.985,684.96,370.3,689.592,404.943Z" transform="translate(-174.5 -344.887)" fill="#29384b"/>
            </g>
            <g id="XMLID_125_" transform="translate(601.619 37.632)">
              <path id="XMLID_138_" d="M789.117,412.635H755.024c-2.038-15.564-11.3-25.384-28.9-25.384-13.341,0-23.346,5.929-23.346,18.158,0,12.6,9.079,19.084,35.76,25.013,36.686,7.782,53.177,22.975,53.177,47.8,0,28.534-28.9,45.024-61.7,45.024-39.836,0-66.147-16.3-69.111-47.989h34.092c3.521,16.861,17.6,25.384,34.648,25.384,15.193,0,27.237-7.411,27.237-19.084,0-12.6-8.708-20.381-33.351-25.569-34.092-7.411-55.771-18.158-55.771-46.321,0-27.978,27.978-44.468,59.662-44.468C767.439,364.832,785.6,385.769,789.117,412.635Z" transform="translate(-660.9 -365.197)" fill="#29384b"/>
              <path id="XMLID_137_" d="M833.3,507.488c-13.711,31.869-27.607,41.874-53.918,41.874a120.665,120.665,0,0,1-15.008-.927V527.313a88.641,88.641,0,0,0,10.005.371c11.3,0,18.9-3.891,24.272-15.564l1.668-3.891L747.7,385.2h37.613l32.054,94.125,31.5-94.125h36.686Z" transform="translate(-586.873 -348.138)" fill="#29384b"/>
              <path id="XMLID_136_" d="M944.595,420.772H911.243c-2.223-10.746-8.708-16.861-19.825-16.861-10.005,0-15.193,5.188-15.193,12.6,0,8.708,8.153,13.341,29.275,18.158,26.31,6.114,41.874,15.935,41.874,37.613,0,23.716-23.346,35.019-52.991,35.019-31.128,0-53.177-12.414-56.882-38.91h33.351c2.594,12.6,12.414,18.9,24.087,18.9,10.747,0,18.9-4.261,18.9-12.6,0-9.079-8.523-14.267-30.757-19.084C858.993,450.047,842.5,440.6,842.5,420.217c0-22.419,20.381-36.316,50.953-36.316C924.213,383.715,941.815,399.279,944.595,420.772Z" transform="translate(-510.287 -349.248)" fill="#29384b"/>
              <path id="XMLID_135_" d="M966.365,473.789a90.405,90.405,0,0,0,.37,10.376c.927,11.3,5.559,14.267,24.272,12.6V516.59a176.617,176.617,0,0,1-22.049,1.667c-25.013,0-33.722-7.411-35.389-24.087-.371-5.188-.371-10.376-.371-16.861V419.5H914.3V399.3h18.9V370.4H966.55v28.9h26.866v20.2H966.735v54.288Z" transform="translate(-444.789 -360.76)" fill="#29384b"/>
              <path id="XMLID_132_" d="M1100.567,453.652h-91.531c2.224,24.643,14.267,32.425,29.831,32.425,14.267,0,24.643-7.226,26.866-19.826h33.351c-6.485,27.237-30.757,41.133-60.959,41.133-35.389,0-62.626-20.2-62.626-61.329,0-35.945,25.94-62.256,65.22-62.256,39.651,0,60.4,27.237,60.4,59.476C1100.938,446.056,1100.938,449.761,1100.567,453.652Zm-90.6-19.826h56.882c-2.224-18.528-11.3-28.534-27.237-28.534S1012.557,414.372,1009.963,433.827Z" transform="translate(-392.594 -349.332)" fill="#29384b"/>
              <path id="XMLID_129_" d="M1261.04,434.127V504.35h-33.351V443.206c0-6.856-.371-13.341-.926-19.084-1.668-12.043-9.079-18.9-21.678-18.9-15.008,0-23.346,11.673-23.346,38.91v60.4h-33.166V443.576c0-6.856-.37-13.34-.927-19.084-1.667-12.043-9.079-18.9-22.049-18.9-15.008,0-23.346,11.673-23.346,38.91v60.4H1068.9V387.435h33.351v17.787l9.45-14.267c7.226-4.632,15.934-6.856,27.237-6.856,21.122,0,34.463,9.45,39.651,22.419l12.6-15.564c7.226-4.632,15.935-6.856,27.607-6.856,24.272,0,38.539,12.97,41.5,29.275A198.651,198.651,0,0,1,1261.04,434.127Z" transform="translate(-312.939 -349.076)" fill="#29384b"/>
              <path id="XMLID_128_" d="M1303.194,420.772h-33.351c-2.223-10.746-8.708-16.861-19.825-16.861-10.005,0-15.193,5.188-15.193,12.6,0,8.708,8.152,13.341,29.275,18.158,26.31,6.114,41.874,15.935,41.874,37.613,0,23.716-23.346,35.019-52.991,35.019-31.128,0-53.177-12.414-56.882-38.91h33.351c2.594,12.6,12.414,18.9,24.087,18.9,10.747,0,18.9-4.261,18.9-12.6,0-9.079-8.523-14.267-30.757-19.084-24.087-5.558-40.577-15.008-40.577-35.389,0-22.419,20.381-36.316,50.953-36.316C1282.813,383.715,1300.23,399.279,1303.194,420.772Z" transform="translate(-204.456 -349.248)" fill="#29384b"/>
            </g>
          </g>
        </g>
      </g>
      <rect id="XMLID_127_" width="42.245" height="38.91" transform="translate(309.695 38.837)" fill="#c05ba2"/>
    </g>
  </g>
</svg>
