<svg xmlns="http://www.w3.org/2000/svg" xmlns:xlink="http://www.w3.org/1999/xlink" viewBox="0 0 133.49 90.48"><defs><style>.cls-1{fill:none;}.cls-2{fill:#4284f3;}.cls-3{fill:#e94335;}.cls-4{fill:#34a753;}.cls-5{clip-path:url(#clip-path);}.cls-6{fill:#3572c8;}.cls-7{clip-path:url(#clip-path-2);}.cls-8{fill:#be312b;}.cls-9{clip-path:url(#clip-path-3);}.cls-10{clip-path:url(#clip-path-4);}.cls-11{fill:#29863f;}.cls-12{fill:#fabb05;}.cls-13{fill:#222;}</style><clipPath id="clip-path"><path class="cls-1" d="M70.19,19,68,21.24a29.09,29.09,0,0,1,3.21,8,20.1,20.1,0,0,1,.86,6.46,18.79,18.79,0,0,1-.37,4.08,5.57,5.57,0,0,0-6.6-1.2c.08-.84.19-2.08.18-2.88a22.22,22.22,0,1,0-7,16.49,23.06,23.06,0,0,0,1.62-1.78L60,59.32c-.36.24-.84.6-1.28.9a28.78,28.78,0,0,1-9.05,3.84l-.25,6,0,.37a1.45,1.45,0,0,1-1.44,1.36H38.12a1.47,1.47,0,0,1-1.45-1.36l-.26-6.32a28.66,28.66,0,0,1-8.85-3.71L23.46,64l-.6.52a1.44,1.44,0,0,1-2-.12l-6.77-7.1a1.45,1.45,0,0,1,0-2l4.21-4.36a28.52,28.52,0,0,1-3.42-8.31l-6.25-.26a1.46,1.46,0,0,1-1.35-1.45V31.08a1.45,1.45,0,0,1,1.35-1.45l6.2-.26a28.82,28.82,0,0,1,3.29-8.2l-4.34-4.72a1.44,1.44,0,0,1,.07-2l6.93-6.94a1.45,1.45,0,0,1,2-.07l4.52,4.16a28.68,28.68,0,0,1,9.13-3.9l.26-6.37A1.46,1.46,0,0,1,38.12,0h9.82a1.44,1.44,0,0,1,1.44,1.35l.18,4.2.09,2.17a29,29,0,0,1,9.2,3.94l3.24-2.85,1.56-1.37a1.46,1.46,0,0,1,2,.12l6.77,7.1a1.45,1.45,0,0,1,0,2Z"/></clipPath><clipPath id="clip-path-2"><path class="cls-1" d="M33.66,34.56H26.35a.58.58,0,0,0-.57.58v11a20.49,20.49,0,0,0,8.45,7.47V35.14A.58.58,0,0,0,33.66,34.56Z"/></clipPath><clipPath id="clip-path-3"><path class="cls-1" d="M46.68,29.27h-7.3a.58.58,0,0,0-.58.58V55.17a20.55,20.55,0,0,0,8.46,0V29.85A.58.58,0,0,0,46.68,29.27Z"/></clipPath><clipPath id="clip-path-4"><path class="cls-1" d="M60.28,46.16V24.61A.58.58,0,0,0,59.7,24H52.4a.58.58,0,0,0-.58.57v29A20.52,20.52,0,0,0,60.28,46.16Z"/></clipPath></defs><g id="Layer_2" data-name="Layer 2"><g id="Layer_1-2" data-name="Layer 1"><g id="RGB_Digital_Version_logo" data-name="RGB Digital Version logo"><g id="Logo_1" data-name="Logo 1"><g id="IMS"><g id="Icon"><path class="cls-2" d="M70.19,19,68,21.24a29.09,29.09,0,0,1,3.21,8,20.1,20.1,0,0,1,.86,6.46,18.79,18.79,0,0,1-.37,4.08,5.57,5.57,0,0,0-6.6-1.2c.08-.84.19-2.08.18-2.88a22.22,22.22,0,1,0-7,16.49,23.06,23.06,0,0,0,1.62-1.78L60,59.32c-.36.24-.84.6-1.28.9a28.78,28.78,0,0,1-9.05,3.84l-.25,6,0,.37a1.45,1.45,0,0,1-1.44,1.36H38.12a1.47,1.47,0,0,1-1.45-1.36l-.26-6.32a28.66,28.66,0,0,1-8.85-3.71L23.46,64l-.6.52a1.44,1.44,0,0,1-2-.12l-6.77-7.1a1.45,1.45,0,0,1,0-2l4.21-4.36a28.52,28.52,0,0,1-3.42-8.31l-6.25-.26a1.46,1.46,0,0,1-1.35-1.45V31.08a1.45,1.45,0,0,1,1.35-1.45l6.2-.26a28.82,28.82,0,0,1,3.29-8.2l-4.34-4.72a1.44,1.44,0,0,1,.07-2l6.93-6.94a1.45,1.45,0,0,1,2-.07l4.52,4.16a28.68,28.68,0,0,1,9.13-3.9l.26-6.37A1.46,1.46,0,0,1,38.12,0h9.82a1.44,1.44,0,0,1,1.44,1.35l.18,4.2.09,2.17a29,29,0,0,1,9.2,3.94l3.24-2.85,1.56-1.37a1.46,1.46,0,0,1,2,.12l6.77,7.1a1.45,1.45,0,0,1,0,2Z"/><path class="cls-3" d="M33.66,34.56H26.35a.58.58,0,0,0-.57.58v11a20.49,20.49,0,0,0,8.45,7.47V35.14A.58.58,0,0,0,33.66,34.56Z"/><path class="cls-2" d="M46.68,29.27h-7.3a.58.58,0,0,0-.58.58V55.17a20.55,20.55,0,0,0,8.46,0V29.85A.58.58,0,0,0,46.68,29.27Z"/><path class="cls-4" d="M60.28,46.16V24.61A.58.58,0,0,0,59.7,24H52.4a.58.58,0,0,0-.58.57v29A20.52,20.52,0,0,0,60.28,46.16Z"/><g class="cls-5"><path class="cls-6" d="M1.79,43.46c32.27,8,60.4-1.82,78.71-29.5h0C65.49,53.11,22.11,53.11,1.79,43.46Z"/></g><g class="cls-7"><path class="cls-8" d="M1.79,43.46c32.27,8,60.4-1.82,78.71-29.5h0C65.49,53.11,22.11,53.11,1.79,43.46Z"/></g><g class="cls-9"><path class="cls-6" d="M1.79,43.46c32.27,8,60.4-1.82,78.71-29.5h0C65.49,53.11,22.11,53.11,1.79,43.46Z"/></g><g class="cls-10"><path class="cls-11" d="M1.79,43.46c32.27,8,60.4-1.82,78.71-29.5h0C65.49,53.11,22.11,53.11,1.79,43.46Z"/></g><path class="cls-12" d="M0,42.77c33.3,5.76,60.68-1.87,79-29.55l-3.85-.55L84,5.52,83.11,17l-2.64-3C59.14,54.79,19.66,50.06,0,42.77Z"/></g><path class="cls-13" d="M65,47.33a3.23,3.23,0,0,1,0-4.75,3.78,3.78,0,0,1,2.68-1,3.89,3.89,0,0,1,2.68.92,3,3,0,0,1,1,2.3,3.24,3.24,0,0,1-1,2.47,3.71,3.71,0,0,1-2.68,1A3.78,3.78,0,0,1,65,47.33Zm-.31,3.83h6V71.78h-6Z"/><path class="cls-13" d="M101.05,71.78l0-16.09L93.12,68.94h-2.8L82.47,56V71.78H76.64V45h5.14l10,16.66L101.7,45h5.09l.08,26.82Z"/><path class="cls-13" d="M115.89,71.37a14.31,14.31,0,0,1-4.77-2.24l2.11-4.67a14.41,14.41,0,0,0,4.1,2,15.42,15.42,0,0,0,4.75.77,7.63,7.63,0,0,0,3.91-.79,2.37,2.37,0,0,0,1.26-2.09,2,2,0,0,0-.74-1.59,5.62,5.62,0,0,0-1.92-1c-.78-.26-1.83-.54-3.16-.85a43.9,43.9,0,0,1-5-1.45,8.23,8.23,0,0,1-3.35-2.34,6.31,6.31,0,0,1-1.4-4.29,7.46,7.46,0,0,1,1.26-4.23,8.52,8.52,0,0,1,3.82-3A15.52,15.52,0,0,1,123,44.5a20.54,20.54,0,0,1,5,.61,14.9,14.9,0,0,1,4.29,1.76l-1.91,4.72a14.93,14.93,0,0,0-7.44-2.11,7,7,0,0,0-3.85.84,2.56,2.56,0,0,0-1.24,2.22,2.17,2.17,0,0,0,1.44,2.05,22.31,22.31,0,0,0,4.38,1.33,43.9,43.9,0,0,1,5,1.45,8.33,8.33,0,0,1,3.35,2.3,6.12,6.12,0,0,1,1.4,4.25,7.37,7.37,0,0,1-1.28,4.2,8.75,8.75,0,0,1-3.85,3A15.74,15.74,0,0,1,122,72.24,21.76,21.76,0,0,1,115.89,71.37Z"/><path class="cls-13" d="M8.86,90.13a3.77,3.77,0,0,1-1.53-.91l.4-.79a3.91,3.91,0,0,0,1.4.85,5,5,0,0,0,1.79.33,3.26,3.26,0,0,0,1.95-.48,1.48,1.48,0,0,0,.65-1.24,1.25,1.25,0,0,0-.35-.92,2.35,2.35,0,0,0-.86-.53A13.85,13.85,0,0,0,10.88,86a16.65,16.65,0,0,1-1.74-.53A2.88,2.88,0,0,1,8,84.72a2.08,2.08,0,0,1-.46-1.43A2.48,2.48,0,0,1,8,82a2.7,2.7,0,0,1,1.19-1,4.88,4.88,0,0,1,2-.36,5.93,5.93,0,0,1,1.62.23,4.61,4.61,0,0,1,1.38.63l-.35.81a4.92,4.92,0,0,0-2.65-.8A3.16,3.16,0,0,0,9.22,82a1.52,1.52,0,0,0-.64,1.27,1.25,1.25,0,0,0,.35.93,2.43,2.43,0,0,0,.88.54c.36.12.83.26,1.43.4a15.52,15.52,0,0,1,1.72.52,2.74,2.74,0,0,1,1.11.78,2,2,0,0,1,.46,1.4,2.38,2.38,0,0,1-.39,1.33,2.68,2.68,0,0,1-1.21,1,5,5,0,0,1-2,.36A6.23,6.23,0,0,1,8.86,90.13Z"/><path class="cls-13" d="M30.43,87.05v3.34h-1V87.05l-3.87-6.33h1.09L30,86.15l3.31-5.43h1Z"/><path class="cls-13" d="M46.84,90.13a3.66,3.66,0,0,1-1.52-.91l.4-.79a3.86,3.86,0,0,0,1.39.85,5,5,0,0,0,1.8.33,3.24,3.24,0,0,0,1.94-.48,1.46,1.46,0,0,0,.65-1.24,1.21,1.21,0,0,0-.35-.92,2.27,2.27,0,0,0-.86-.53A13.14,13.14,0,0,0,48.86,86a17.45,17.45,0,0,1-1.74-.53A2.88,2.88,0,0,1,46,84.72a2.08,2.08,0,0,1-.46-1.43A2.41,2.41,0,0,1,45.94,82a2.61,2.61,0,0,1,1.18-1,4.88,4.88,0,0,1,2-.36,5.94,5.94,0,0,1,1.63.23,4.55,4.55,0,0,1,1.37.63l-.34.81a5.28,5.28,0,0,0-1.3-.6,5,5,0,0,0-1.36-.2A3.18,3.18,0,0,0,47.2,82a1.52,1.52,0,0,0-.64,1.27,1.29,1.29,0,0,0,.35.93,2.51,2.51,0,0,0,.88.54c.36.12.84.26,1.43.4a14.88,14.88,0,0,1,1.72.52,2.84,2.84,0,0,1,1.12.78,2,2,0,0,1,.45,1.4,2.38,2.38,0,0,1-.39,1.33,2.68,2.68,0,0,1-1.21,1,4.93,4.93,0,0,1-2,.36A6.25,6.25,0,0,1,46.84,90.13Z"/><path class="cls-13" d="M67,81.61h-3.4v-.89h7.82v.89h-3.4v8.78H67Z"/><path class="cls-13" d="M90.49,89.51v.88H83.66V80.72h6.63v.89H84.68v3.44h5v.87h-5v3.59Z"/><path class="cls-13" d="M113.5,80.72v9.67h-1V82.66l-3.8,6.5h-.48l-3.8-6.46v7.69h-1V80.72h.84l4.2,7.17,4.16-7.17Z"/><path class="cls-13" d="M127.82,90.13a3.77,3.77,0,0,1-1.53-.91l.4-.79a3.91,3.91,0,0,0,1.4.85,5,5,0,0,0,1.79.33,3.26,3.26,0,0,0,2-.48,1.48,1.48,0,0,0,.65-1.24,1.25,1.25,0,0,0-.35-.92,2.35,2.35,0,0,0-.86-.53,13.85,13.85,0,0,0-1.43-.41,16.65,16.65,0,0,1-1.74-.53,2.88,2.88,0,0,1-1.11-.78,2.08,2.08,0,0,1-.46-1.43,2.48,2.48,0,0,1,.38-1.33,2.7,2.7,0,0,1,1.19-1,4.88,4.88,0,0,1,2-.36,5.93,5.93,0,0,1,1.62.23,4.61,4.61,0,0,1,1.38.63l-.35.81a4.92,4.92,0,0,0-2.65-.8,3.16,3.16,0,0,0-1.91.49,1.52,1.52,0,0,0-.64,1.27,1.25,1.25,0,0,0,.35.93,2.43,2.43,0,0,0,.88.54c.36.12.83.26,1.43.4a15.52,15.52,0,0,1,1.72.52,2.74,2.74,0,0,1,1.11.78,2,2,0,0,1,.46,1.4,2.38,2.38,0,0,1-.39,1.33,2.68,2.68,0,0,1-1.21,1,5,5,0,0,1-2,.36A6.23,6.23,0,0,1,127.82,90.13Z"/></g></g></g></g></g></svg>